<?xml version="1.0" standalone="no"?>
<!DOCTYPE svg PUBLIC "-//W3C//DTD SVG 20010904//EN"
 "http://www.w3.org/TR/2001/REC-SVG-20010904/DTD/svg10.dtd">
<svg version="1.0" xmlns="http://www.w3.org/2000/svg"
 width="500.000000pt" height="500.000000pt" viewBox="0 0 500.000000 500.000000"
 preserveAspectRatio="xMidYMid meet">
<metadata>
Created by potrace 1.16, written by Peter Selinger 2001-2019
</metadata>
<g transform="translate(0.000000,500.000000) scale(0.100000,-0.100000)"
fill="#000000" stroke="none">
<path d="M2310 4179 c-41 -5 -117 -18 -167 -29 l-93 -21 -57 22 c-83 32 -223
32 -316 0 -156 -53 -306 -217 -325 -353 -4 -33 -17 -51 -88 -116 -116 -108
-241 -272 -318 -417 -254 -476 -273 -1010 -54 -1488 l31 -67 -76 -73 c-98 -92
-101 -113 -32 -217 106 -158 356 -380 430 -380 31 0 115 52 115 71 0 5 11 14
23 20 21 10 36 3 123 -57 275 -187 625 -293 971 -294 483 0 929 184 1259 522
421 430 585 1010 444 1570 -29 113 -115 327 -168 418 -181 309 -432 552 -735
710 -279 146 -649 214 -967 179z m-442 -111 c7 -7 12 -21 12 -32 0 -16 17 -29
70 -54 74 -34 95 -59 86 -98 -9 -36 -44 -39 -106 -10 -67 32 -122 34 -150 6
-44 -44 -15 -90 73 -119 129 -43 187 -101 187 -187 0 -79 -52 -142 -132 -159
-25 -6 -28 -11 -28 -45 0 -43 -25 -66 -60 -55 -19 6 -25 19 -32 70 -2 14 -20
26 -63 41 -77 27 -128 72 -123 110 6 49 29 52 104 13 81 -41 158 -47 193 -15
45 41 21 90 -57 112 -136 39 -202 103 -202 194 0 70 40 123 118 155 23 10 32
20 32 37 0 30 17 48 45 48 12 0 26 -5 33 -12z m852 -73 c514 -78 961 -413
1185 -889 157 -333 190 -644 105 -984 -23 -90 -122 -342 -135 -342 -2 0 -13
20 -25 44 -34 70 -403 460 -457 482 -39 17 -121 18 -160 3 -15 -5 -42 -24 -59
-40 -28 -27 -38 -31 -101 -32 -59 -2 -75 -6 -105 -29 l-35 -27 -28 29 -27 28
21 21 c13 13 21 34 21 55 0 48 -37 76 -101 76 -48 0 -48 0 -39 -26 15 -38 13
-40 -17 -13 -89 80 -150 109 -230 109 -135 -1 -226 -95 -225 -232 0 -86 27
-129 167 -273 69 -71 125 -132 125 -137 0 -4 -7 -8 -15 -8 -59 0 -167 -96
-179 -159 -2 -14 -7 -43 -11 -63 l-6 -38 -284 0 c-191 0 -292 4 -309 11 -57
26 -56 6 -56 868 l0 792 48 -7 c75 -10 188 12 267 50 62 31 165 116 165 138 0
4 212 8 470 8 l470 0 0 -289 0 -289 47 14 c25 8 63 14 85 14 l38 0 0 348 c0
400 -2 410 -78 488 -89 90 -80 89 -539 92 l-402 3 -11 37 c-7 20 -28 63 -47
95 -19 32 -33 60 -31 62 2 2 33 8 68 13 102 15 326 13 430 -3z m-143 -421 c17
-23 16 -29 -3 -48 -13 -13 -42 -16 -164 -16 -139 0 -150 1 -160 20 -11 21 0
55 20 62 6 1 74 2 152 1 123 -1 144 -3 155 -19z m-1130 -176 c24 -32 59 -70
78 -84 33 -25 35 -30 35 -85 l0 -59 -57 0 c-114 0 -178 -72 -193 -214 -5 -39
-24 -134 -43 -211 -78 -306 -104 -483 -87 -583 l11 -68 -33 -36 c-18 -19 -58
-57 -87 -83 l-55 -48 -18 43 c-70 165 -98 485 -63 725 37 256 171 543 349 746
l79 91 20 -38 c11 -22 40 -65 64 -96z m96 -390 c16 -12 17 -55 15 -567 l-3
-554 -63 55 c-88 76 -128 135 -141 209 -17 98 9 272 91 608 27 110 38 175 34
197 -5 26 -2 35 16 48 27 19 30 19 51 4z m1047 -719 c19 -12 140 -126 268
-255 128 -129 240 -234 248 -234 21 0 64 45 64 67 0 10 -31 50 -70 88 -38 38
-70 75 -70 82 0 7 11 20 25 29 37 24 65 8 153 -87 53 -57 81 -79 98 -79 27 0
64 32 64 56 0 9 -27 45 -60 81 -64 70 -73 96 -39 113 35 19 65 3 131 -72 35
-39 115 -123 179 -187 127 -127 155 -171 165 -254 l6 -54 -90 -100 c-50 -55
-108 -113 -129 -128 -21 -16 -57 -46 -80 -67 -24 -21 -74 -58 -112 -83 -68
-44 -69 -44 -125 -35 -79 13 -127 37 -381 189 -228 136 -275 173 -275 217 0
33 50 84 83 84 28 0 108 -40 287 -144 71 -41 90 -33 90 35 0 55 9 43 -312 384
-220 234 -248 268 -248 302 0 30 42 73 72 73 13 0 39 -10 58 -21z m-1265 -429
c33 -33 99 -90 146 -128 85 -65 87 -68 94 -117 3 -27 15 -69 25 -92 27 -61
102 -137 163 -164 51 -24 59 -24 442 -29 l390 -5 115 -72 c63 -39 164 -99 224
-133 59 -34 104 -66 100 -70 -12 -11 -130 -45 -234 -67 -68 -14 -130 -18 -310
-18 -210 1 -233 2 -341 28 -190 45 -418 143 -541 234 l-49 36 45 46 46 47 -26
25 c-15 13 -38 49 -53 79 -20 42 -54 80 -140 160 -62 58 -143 133 -179 167
l-67 63 40 35 c22 19 42 35 45 35 3 0 32 -27 65 -60z"/>
<path d="M1951 3134 c-26 -34 -27 -68 -1 -94 18 -18 33 -20 193 -20 140 0 177
3 195 16 29 20 30 76 2 104 -18 18 -33 20 -194 20 l-175 0 -20 -26z"/>
<path d="M2512 3137 c-27 -29 -28 -71 -2 -97 19 -19 33 -20 198 -20 191 0 197
2 215 53 8 22 -16 72 -38 81 -9 3 -92 6 -184 6 -162 0 -168 -1 -189 -23z"/>
<path d="M3235 2781 c-79 -20 -159 -95 -171 -158 -19 -102 22 -194 104 -235
65 -32 178 -32 240 0 78 41 125 147 102 231 -14 54 -63 117 -108 140 -45 23
-124 33 -167 22z m153 -173 c17 -17 15 -63 -5 -79 -10 -9 -44 -15 -89 -16 -60
-1 -78 3 -99 19 -27 21 -33 56 -13 76 16 16 190 16 206 0z"/>
<path d="M1950 2750 c-11 -11 -20 -33 -20 -50 0 -17 9 -39 20 -50 18 -18 33
-20 194 -20 154 0 176 2 197 18 28 23 30 73 4 102 -17 19 -30 20 -197 20 -165
0 -179 -1 -198 -20z"/>
<path d="M2510 2750 c-11 -11 -20 -33 -20 -50 0 -17 9 -39 20 -50 18 -18 33
-20 194 -20 154 0 176 2 197 18 28 23 30 73 4 102 -17 19 -30 20 -197 20 -165
0 -179 -1 -198 -20z"/>
<path d="M1955 2365 c-32 -31 -33 -74 -2 -103 21 -20 34 -22 148 -22 l125 0
12 53 c6 28 14 62 18 75 l6 22 -141 0 c-137 0 -143 -1 -166 -25z"/>
<path d="M1950 1960 c-27 -27 -26 -71 3 -98 22 -21 32 -22 194 -22 148 0 174
2 191 18 35 29 38 67 8 96 -25 26 -26 26 -201 26 -162 0 -177 -2 -195 -20z"/>
</g>
</svg>
